PathFileType	4	(X/Y/Z)	 s08c0102.trc
DataRate	CameraRate	NumFrames	NumMarkers	Units	OrigDataRate	OrigDataStartFrame	OrigNumFrames
200	200	4	50	mm	200	501	2000
Frame#	Time	racr			lacr			c7			jug			rlel			rdr			llel			ldr			s2			lic			ric			lasi			rasi			rpsi			lpsi			rgt			lgt			rth1			rth2			rth3			rth4			rlfc			rmfc			rsh1			rsh2			rsh3			rsh4			rlmal			rmmal			rcal			rtoe			rmt5			lth1			lth2			lth4			lth3			llfc			lmfc			llmal			lmmal			lcal			lmt5			lsh1			lsh2			lsh3			lsh4			ltoe			SBIKE			LBIKE			RBIKE			
		X1	Y1	Z1	X2	Y2	Z2	X3	Y3	Z3	X4	Y4	Z4	X5	Y5	Z5	X6	Y6	Z6	X7	Y7	Z7	X8	Y8	Z8	X9	Y9	Z9	X10	Y10	Z10	X11	Y11	Z11	X12	Y12	Z12	X13	Y13	Z13	X14	Y14	Z14	X15	Y15	Z15	X16	Y16	Z16	X17	Y17	Z17	X18	Y18	Z18	X19	Y19	Z19	X20	Y20	Z20	X21	Y21	Z21	X22	Y22	Z22	X23	Y23	Z23	X24	Y24	Z24	X25	Y25	Z25	X26	Y26	Z26	X27	Y27	Z27	X28	Y28	Z28	X29	Y29	Z29	X30	Y30	Z30	X31	Y31	Z31	X32	Y32	Z32	X33	Y33	Z33	X34	Y34	Z34	X35	Y35	Z35	X36	Y36	Z36	X37	Y37	Z37	X38	Y38	Z38	X39	Y39	Z39	X40	Y40	Z40	X41	Y41	Z41	X42	Y42	Z42	X43	Y43	Z43	X44	Y44	Z44	X45	Y45	Z45	X46	Y46	Z46	X47	Y47	Z47	X48	Y48	Z48	X49	Y49	Z49	X50	Y50	Z50	
501	2.5050	597.378630	1316.022003	-121.899825	551.703006	1353.468564	-408.871575	530.467441	1409.566638	-254.097068	517.974680	1252.218515	-276.594890	611.126056	1095.268420	40.528927	804.085026	889.163579	-29.306602	571.380908	1080.017633	-490.038611	807.985399	922.060764	-411.336688	-26.597189	1224.078827	-176.986307	107.191684	1227.938863	-339.193911	156.591973	1198.277111	-33.710570	142.474483	1191.804351	-305.487111	163.726385	1144.286386	-70.067961	14.856137	1257.622717	-121.329885	1.702907	1274.394445	-210.760599	59.638405	1089.380677	-5.448097	65.403890	1136.381496	-380.874793	174.762661	963.968440	-7.985550	245.987600	910.534941	-11.774855	279.674330	830.671872	-19.157238	273.334823	932.615358	-22.065179	338.287440	730.402340	-32.558925	322.888078	725.494196	-142.666754	245.919458	634.400925	-8.514948	219.807853	551.655032	-34.639429	157.187509	493.797027	-44.135980	247.048218	541.662363	-62.083086	84.097571	402.377878	-57.047016	109.917708	414.948716	-143.700934	11.199896	422.376005	-109.285810	234.603540	226.267983	-96.120809	144.343709	259.222626	-33.436381	159.702578	1037.797967	-396.501925	238.482765	1000.465452	-397.634122	262.246613	1027.140248	-387.648796	288.636274	927.058839	-401.397304	372.159133	820.818769	-383.299087	377.915450	792.676204	-276.151378	308.177251	401.869640	-388.566301	329.336778	426.909234	-300.616807	246.069145	354.333480	-351.478537	460.219016	368.759039	-413.091211	356.380116	690.246390	-409.199788	362.444904	606.217375	-392.589962	328.119140	525.565769	-395.321740	383.727326	606.469368	-359.323204	525.831764	426.017242	-345.301494	-135.080659	941.788938	-220.096539	25.685390	84.283915	-425.820621	16.890196	79.986300	-27.653439	
502	2.5100	597.349727	1314.300054	-119.114305	552.046156	1352.148664	-409.193810	531.053129	1408.342210	-253.104729	517.564726	1250.897132	-274.800561	610.847393	1093.510153	42.074084	804.344157	888.722501	-28.820240	570.836597	1078.564086	-491.140566	807.696561	921.550802	-410.884958	-24.918042	1221.416515	-178.558561	108.738401	1224.982418	-341.344379	156.656297	1196.452629	-35.060694	143.827921	1188.782478	-307.079925	164.250040	1142.851365	-71.362287	15.371860	1255.186113	-122.806637	2.482217	1271.491790	-211.715168	60.879557	1087.621749	-5.828858	65.867165	1131.564663	-382.167498	177.108020	964.918223	-8.329883	249.262516	912.723147	-11.744646	284.582961	833.268055	-18.081045	276.207893	935.179209	-22.401275	344.787575	734.239515	-32.320010	329.611775	729.131545	-142.411794	250.408862	640.342472	-8.396460	222.407727	558.137653	-34.634948	158.438287	501.855997	-44.253030	250.493014	548.113501	-61.299352	83.613016	411.958807	-57.917897	108.376456	423.733712	-144.982270	10.605690	433.580966	-109.232942	231.975680	235.304770	-96.142244	142.029059	269.020866	-33.518491	158.576218	1031.092922	-397.754035	236.769402	992.486108	-399.004177	260.723308	1018.597155	-389.192499	285.640493	918.225862	-402.205839	368.676227	811.820855	-384.076953	375.097414	784.249639	-276.520570	310.747843	391.804430	-388.816142	344.156512	426.751537	-316.273083	248.661304	344.438542	-351.755043	462.923151	358.348434	-412.997207	354.637810	681.006852	-409.744998	362.098676	596.959383	-392.998416	328.804047	515.417559	-394.993427	383.168156	597.626019	-359.662513	528.732675	415.536393	-345.150593	-135.103764	941.760834	-220.021489	25.703185	84.279567	-425.817773	16.903464	79.995008	-27.629721	
503	2.5150	597.127942	1312.862067	-116.437566	553.861211	1352.240512	-412.484820	531.850673	1407.360423	-251.927845	518.742859	1249.830227	-273.723544	610.521633	1091.784749	43.879485	804.479106	888.449050	-28.437158	570.346704	1076.868471	-491.138887	807.400045	920.914657	-410.518525	-24.048869	1219.091854	-180.005650	110.254005	1221.986692	-343.488251	156.821240	1194.891631	-36.516717	145.447137	1185.742087	-308.843586	164.952594	1141.606467	-72.790625	15.884103	1253.085455	-124.320190	4.194104	1268.719571	-218.005211	62.338633	1086.037260	-6.470830	66.538760	1126.529931	-383.634991	179.454174	965.518610	-8.484589	252.647437	914.763753	-11.470491	289.875179	836.207613	-17.187834	279.096812	937.655534	-22.520659	351.575952	738.510597	-32.089832	330.195186	735.656341	-147.500621	255.125351	646.388778	-8.538310	225.342486	564.921718	-34.693591	160.129006	510.045449	-44.305098	253.026085	554.201050	-61.469976	83.583971	422.347597	-58.002117	109.113685	433.088739	-145.387024	10.542070	444.897240	-109.156180	229.990213	244.515639	-96.103232	140.416700	278.995328	-33.459240	157.682311	1024.301663	-399.187591	235.242427	984.356755	-400.477826	259.629967	1010.216679	-391.396145	282.778249	909.235853	-402.973461	365.187933	802.795904	-385.088817	372.142883	775.748242	-277.031600	312.622167	381.884357	-389.326429	345.792427	416.870851	-316.679812	250.650945	334.781032	-352.144322	465.115780	347.821029	-412.845060	352.672440	671.755908	-410.409130	361.239594	587.802634	-393.753543	329.354576	505.644388	-395.503047	382.211566	588.808376	-360.004989	531.072009	404.869073	-345.055267	-135.092976	941.689723	-219.987951	25.720275	84.271693	-425.805054	16.876780	79.976091	-27.643396	
504	2.5200	596.750537	1311.587975	-113.614171	554.703352	1351.297108	-412.890979	532.710272	1406.667210	-250.891504	518.183064	1249.091338	-271.928371	609.395487	1090.036230	45.693739	804.531417	888.334184	-28.184670	570.342628	1074.995721	-490.000294	807.136794	920.017736	-410.033709	-22.817345	1216.319483	-183.032076	112.249608	1219.137273	-346.087260	157.033738	1193.810955	-38.151846	147.339338	1182.702025	-310.782979	165.713255	1140.769592	-74.329472	16.294294	1251.271211	-126.185053	5.246268	1266.075446	-219.393174	63.941353	1084.836742	-7.231055	67.345430	1121.521948	-385.213157	182.028372	966.125122	-8.293520	256.220159	916.874097	-11.069666	295.018615	838.896285	-17.077063	282.620647	940.144768	-22.254671	358.381134	743.072793	-32.057596	336.956863	739.933612	-147.416513	260.068686	652.875454	-8.598393	228.611659	571.812544	-34.805741	162.218019	518.400013	-44.489078	256.164874	560.702229	-61.465016	83.959220	432.797724	-58.120064	109.503786	443.088242	-145.478582	11.086607	456.056483	-109.070300	228.583739	253.763455	-96.236210	139.367381	289.094138	-33.575405	157.122903	1017.509448	-400.708175	233.923983	976.181776	-401.999551	258.815978	1001.732532	-393.494753	280.144385	900.204816	-403.694587	361.166903	793.139478	-385.053177	368.829479	767.094120	-277.831778	313.949633	372.059258	-389.847629	346.483626	407.287498	-316.889535	252.073709	325.240233	-352.612501	466.720695	337.253120	-412.731647	350.331418	662.373041	-411.032513	360.079920	578.518945	-394.347248	329.411577	495.789488	-395.761777	380.883412	579.771209	-360.475347	532.871878	393.949819	-344.738781	-134.994262	941.668133	-220.217550	25.740149	84.227355	-425.802573	16.896300	79.978237	-27.615693	
